<svg xmlns="http://www.w3.org/2000/svg" width="44" height="44" style=""><rect id="backgroundrect" width="100%" height="100%" x="0" y="0" fill="none" stroke="none"/>

 <g style="">
  <title>background</title>
  <rect fill="none" id="canvas_background" height="402" width="582" y="-1" x="-1"/>
 </g>
 <g style="" class="currentLayer">
  <title>Layer 1</title>
  <g fill="#363636" id="web_x5F_settings" class="selected" fill-opacity="1">
   <g id="svg_1" fill="#363636">
    <path id="svg_2" d="m43,12c-0.6,0 -1,0.4 -1,1l0,22c0,0.6 -0.4,1 -1,1l-4,0c-0.6,0 -1,0.4 -1,1s0.4,1 1,1l4,0c1.7,0 3,-1.3 3,-3l0,-22c0,-0.6 -0.4,-1 -1,-1z" fill="#363636"/>
    <path id="svg_3" d="m41,0l-38,0c-1.7,0 -3,1.3 -3,3l0,32c0,1.7 1.3,3 3,3l4,0c0.6,0 1,-0.4 1,-1s-0.4,-1 -1,-1l-4,0c-0.6,0 -1,-0.4 -1,-1l0,-32c0,-0.6 0.4,-1 1,-1l38,0c0.6,0 1,0.4 1,1l0,5l-37,0c-0.6,0 -1,0.4 -1,1s0.4,1 1,1l38,0c0.6,0 1,-0.4 1,-1l0,-6c0,-1.7 -1.3,-3 -3,-3z" fill="#363636"/>
    <circle id="svg_4" r="1" cy="5" cx="5" fill="#363636"/>
    <circle id="svg_5" r="1" cy="5" cx="9" fill="#363636"/>
    <circle id="svg_6" r="1" cy="5" cx="13" fill="#363636"/>
    <path id="svg_7" d="m22,20c-4.4,0 -8,3.6 -8,8s3.6,8 8,8s8,-3.6 8,-8s-3.6,-8 -8,-8zm0,14c-3.3,0 -6,-2.7 -6,-6s2.7,-6 6,-6s6,2.7 6,6s-2.7,6 -6,6z" fill="#363636"/>
    <path id="svg_8" d="m38,28c0,-1.6 -1.1,-3.1 -2.7,-3.5c-0.5,-0.1 -0.9,-0.5 -1.1,-1c-0.1,-0.4 -0.3,-0.7 -0.4,-1.1c-0.2,-0.5 -0.2,-1 0.1,-1.5c0.8,-1.4 0.6,-3.2 -0.5,-4.4c-1.2,-1.2 -2.9,-1.4 -4.4,-0.5c-0.4,0.3 -1,0.3 -1.4,0.1c-0.3,-0.2 -0.7,-0.3 -1.1,-0.4c-0.5,-0.2 -0.8,-0.6 -1,-1.1c-0.4,-1.5 -1.9,-2.6 -3.5,-2.6s-3.1,1.1 -3.5,2.7c-0.1,0.5 -0.5,0.9 -1,1.1c-0.4,0.1 -0.7,0.3 -1.1,0.4c-0.5,0.2 -1,0.2 -1.5,-0.1c-1.4,-0.8 -3.2,-0.6 -4.4,0.5c-1.2,1.2 -1.4,2.9 -0.5,4.4c0.3,0.4 0.3,1 0.1,1.4c-0.2,0.3 -0.3,0.7 -0.4,1.1c-0.2,0.5 -0.6,0.8 -1.1,1c-1.5,0.4 -2.6,1.9 -2.6,3.5s1.1,3.1 2.7,3.5c0.5,0.1 0.9,0.5 1.1,1c0.1,0.4 0.3,0.7 0.4,1.1c0.2,0.5 0.2,1 -0.1,1.5c-0.8,1.4 -0.6,3.2 0.5,4.4c1.2,1.2 2.9,1.4 4.4,0.5c0.4,-0.3 1,-0.3 1.4,-0.1c0.3,0.2 0.7,0.3 1.1,0.4c0.5,0.2 0.8,0.6 1,1.1c0.4,1.6 1.8,2.7 3.5,2.7s3.1,-1.1 3.5,-2.7c0.1,-0.5 0.5,-0.9 1,-1.1c0.4,-0.1 0.7,-0.3 1.1,-0.4c0.5,-0.2 1,-0.2 1.5,0.1c1.4,0.8 3.2,0.6 4.4,-0.5c1.2,-1.2 1.4,-2.9 0.5,-4.4c-0.3,-0.4 -0.3,-1 -0.1,-1.4c0.2,-0.3 0.3,-0.7 0.4,-1.1c0.2,-0.5 0.6,-0.8 1.1,-1c1.5,-0.5 2.6,-2 2.6,-3.6zm-3.2,1.5c-1.1,0.3 -2.1,1.1 -2.5,2.2c-0.1,0.3 -0.2,0.6 -0.4,0.9c-0.5,1.1 -0.4,2.3 0.2,3.3c0.4,0.6 0.3,1.4 -0.2,1.9c-0.5,0.5 -1.3,0.6 -1.9,0.2c-1,-0.6 -2.3,-0.7 -3.3,-0.2c-0.3,0.1 -0.6,0.3 -0.9,0.4c-1.1,0.4 -1.9,1.3 -2.2,2.5c-0.3,0.8 -0.9,1.3 -1.6,1.3s-1.3,-0.5 -1.5,-1.2c-0.3,-1.1 -1.1,-2.1 -2.2,-2.5c-0.3,-0.1 -0.6,-0.2 -0.9,-0.4c-0.5,-0.2 -1,-0.3 -1.5,-0.3c-0.6,0 -1.3,0.2 -1.8,0.5c-0.6,0.4 -1.4,0.3 -1.9,-0.2c-0.5,-0.5 -0.6,-1.3 -0.2,-1.9c0.6,-1 0.7,-2.3 0.2,-3.3c-0.1,-0.3 -0.3,-0.6 -0.4,-0.9c-0.4,-1.1 -1.3,-1.9 -2.5,-2.2c-0.8,-0.3 -1.3,-0.9 -1.3,-1.6s0.5,-1.3 1.2,-1.5c1.1,-0.3 2.1,-1.1 2.5,-2.2c0.1,-0.3 0.2,-0.6 0.4,-0.9c0.5,-1.1 0.4,-2.3 -0.2,-3.3c-0.4,-0.6 -0.3,-1.4 0.2,-1.9c0.5,-0.5 1.3,-0.6 1.9,-0.2c1,0.6 2.3,0.7 3.3,0.2c0.3,-0.1 0.6,-0.3 0.9,-0.4c1.1,-0.4 1.9,-1.3 2.2,-2.5c0.2,-0.7 0.8,-1.2 1.5,-1.2s1.3,0.5 1.5,1.2c0.3,1.1 1.1,2.1 2.2,2.5c0.3,0.1 0.6,0.2 0.9,0.4c1.1,0.5 2.3,0.4 3.3,-0.2c0.6,-0.4 1.4,-0.3 1.9,0.2c0.5,0.5 0.6,1.3 0.2,1.9c-0.6,1 -0.7,2.3 -0.2,3.3c0.1,0.3 0.3,0.6 0.4,0.9c0.4,1.1 1.3,1.9 2.5,2.2c0.7,0.2 1.2,0.8 1.2,1.5s-0.3,1.3 -1,1.5z" fill="#363636"/>
    <circle id="svg_9" r="2" cy="28" cx="22" fill="#363636"/>
   </g>
  </g>
  <g id="web_x5F_search"/>
  <g id="web_x5F_speed"/>
  <g id="web_x5F_award"/>
  <g id="funnel"/>
  <g id="chain"/>
  <g id="globe_x5F_settings"/>
  <g id="target"/>
  <g id="web_x5F_coins"/>
  <g id="pc_x5F_chart"/>
  <g id="marketing"/>
  <g id="flag"/>
  <g id="search"/>
  <g id="clipboard"/>
  <g id="pc_x5F_lock"/>
  <g id="idea"/>
  <g id="ppc"/>
  <g id="web_x5F_eye"/>
  <g id="globe_x5F_location"/>
  <g id="target_x5F_audience"/>
 </g>
</svg>