<svg width="43.99999999999999" height="43.99999999999999" xmlns="http://www.w3.org/2000/svg">

 <g>
  <title>background</title>
  <rect fill="none" id="canvas_background" height="402" width="582" y="-1" x="-1"/>
 </g>
 <g>
  <title>Layer 1</title>
  <g id="web_x5F_settings"/>
  <g id="web_x5F_search"/>
  <g id="web_x5F_speed"/>
  <g id="web_x5F_award"/>
  <g id="funnel"/>
  <g id="chain"/>
  <g id="globe_x5F_settings"/>
  <g id="target"/>
  <g id="web_x5F_coins"/>
  <g id="pc_x5F_chart"/>
  <g id="marketing"/>
  <g id="flag"/>
  <g id="search"/>
  <g id="clipboard"/>
  <g id="pc_x5F_lock"/>
  <g id="idea"/>
  <g id="ppc"/>
  <g id="web_x5F_eye">
   <g id="svg_1">
    <path fill="#ffffff" id="svg_2" d="m44,12l0,-6c0,-1.7 -1.3,-3 -3,-3l-38,0c-1.7,0 -3,1.3 -3,3l0,32c0,1.7 1.3,3 3,3l38,0c1.7,0 3,-1.3 3,-3l0,-22c0,-0.6 -0.4,-1 -1,-1s-1,0.4 -1,1l0,22c0,0.6 -0.4,1 -1,1l-38,0c-0.6,0 -1,-0.4 -1,-1l0,-32c0,-0.6 0.4,-1 1,-1l38,0c0.6,0 1,0.4 1,1l0,5l-37,0c-0.6,0 -1,0.4 -1,1s0.4,1 1,1l38,0c0.6,0 1,-0.4 1,-1z"/>
    <circle fill="#ffffff" id="svg_3" r="1" cy="8" cx="5"/>
    <circle fill="#ffffff" id="svg_4" r="1" cy="8" cx="9"/>
    <circle fill="#ffffff" id="svg_5" r="1" cy="8" cx="13"/>
    <path fill="#ffffff" id="svg_6" d="m9.7,28.3c-0.4,0.4 -0.4,1 0,1.4c3.4,3.4 7.8,5.3 12.3,5.3c5.9,0 11.3,-3.1 14.8,-8.4c0.2,-0.3 0.2,-0.8 0,-1.1c-3.6,-5.4 -9,-8.4 -14.8,-8.4s-11.3,3.1 -14.8,8.4c-0.3,0.5 -0.2,1.1 0.3,1.4c0.5,0.3 1.1,0.2 1.4,-0.3c3.1,-4.8 7.9,-7.6 13.1,-7.6c5,0 9.6,2.5 12.8,7c-3.2,4.5 -7.8,7 -12.8,7c-4,0 -7.8,-1.7 -10.8,-4.7c-0.4,-0.4 -1.1,-0.4 -1.5,0z"/>
    <path fill="#ffffff" id="svg_7" d="m27,26c0,-2.8 -2.2,-5 -5,-5s-5,2.2 -5,5s2.2,5 5,5s5,-2.2 5,-5zm-8,0c0,-1.7 1.3,-3 3,-3s3,1.3 3,3s-1.3,3 -3,3s-3,-1.3 -3,-3z"/>
   </g>
  </g>
  <g id="globe_x5F_location"/>
  <g id="target_x5F_audience"/>
 </g>
</svg>